solid Exported from Blender-2.79 (sub 0)
facet normal 0.453775 0.835802 0.309067
outer loop
vertex 0.016322 -0.033310 0.023291
vertex 0.020007 -0.033510 0.018419
vertex 0.016611 -0.022754 -0.005681
endloop
endfacet
facet normal 0.990759 0.123957 0.055051
outer loop
vertex 0.016611 -0.022754 -0.005681
vertex 0.015418 -0.029012 0.029888
vertex 0.016322 -0.033310 0.023291
endloop
endfacet
facet normal 0.268556 0.949144 0.164326
outer loop
vertex 0.035827 -0.038706 0.022580
vertex 0.030331 -0.036365 0.018041
vertex 0.020007 -0.033510 0.018419
endloop
endfacet
facet normal 0.268556 0.949144 0.164325
outer loop
vertex 0.020007 -0.033510 0.018419
vertex 0.016322 -0.033310 0.023291
vertex 0.035827 -0.038706 0.022580
endloop
endfacet
facet normal 0.250836 0.928224 -0.274741
outer loop
vertex 0.020051 -0.032955 0.027606
vertex 0.032364 -0.036377 0.027289
vertex 0.035827 -0.038706 0.022580
endloop
endfacet
facet normal 0.245530 0.925524 -0.288307
outer loop
vertex 0.035827 -0.038706 0.022580
vertex 0.016322 -0.033310 0.023291
vertex 0.020051 -0.032955 0.027606
endloop
endfacet
facet normal 0.442346 0.777956 -0.446222
outer loop
vertex 0.020051 -0.032955 0.027606
vertex 0.016322 -0.033310 0.023291
vertex 0.015418 -0.029012 0.029888
endloop
endfacet
facet normal 0.410164 0.781294 -0.470474
outer loop
vertex 0.015418 -0.029012 0.029888
vertex 0.008145 -0.021379 0.036224
vertex 0.016793 -0.018099 0.049210
endloop
endfacet
facet normal 0.428144 0.773487 -0.467344
outer loop
vertex 0.015418 -0.029012 0.029888
vertex 0.016793 -0.018099 0.049210
vertex 0.020051 -0.032955 0.027606
endloop
endfacet
facet normal 0.381881 0.908682 -0.168715
outer loop
vertex 0.035827 -0.038706 0.022580
vertex 0.032364 -0.036377 0.027289
vertex 0.045805 -0.038896 0.044141
endloop
endfacet
facet normal 0.596918 0.755655 -0.269580
outer loop
vertex 0.045805 -0.038896 0.044141
vertex 0.055809 -0.053105 0.026466
vertex 0.035827 -0.038706 0.022580
endloop
endfacet
facet normal 0.383965 0.923279 0.011267
outer loop
vertex 0.048912 -0.043868 -0.000346
vertex 0.030331 -0.036365 0.018041
vertex 0.035827 -0.038706 0.022580
endloop
endfacet
facet normal 0.561479 0.816119 0.136713
outer loop
vertex 0.035827 -0.038706 0.022580
vertex 0.055809 -0.053105 0.026466
vertex 0.048912 -0.043868 -0.000346
endloop
endfacet
facet normal 0.000000 0.861198 0.508270
outer loop
vertex 0.000000 0.000000 0.000000
vertex -0.000000 -0.021379 0.036224
vertex 0.008145 -0.021379 0.036224
endloop
endfacet
facet normal 0.000045 0.861202 0.508262
outer loop
vertex 0.008145 -0.021379 0.036224
vertex 0.008145 -0.000000 0.000000
vertex 0.000000 0.000000 0.000000
endloop
endfacet
facet normal 0.000000 0.969549 -0.244899
outer loop
vertex 0.016793 -0.018099 0.049210
vertex 0.008145 -0.021379 0.036224
vertex -0.000000 -0.021379 0.036224
endloop
endfacet
facet normal 0.000000 0.969549 -0.244899
outer loop
vertex -0.000000 -0.021379 0.036224
vertex -0.000000 -0.018099 0.049210
vertex 0.016793 -0.018099 0.049210
endloop
endfacet
facet normal 0.000000 0.932406 0.361413
outer loop
vertex 0.022982 -0.035620 0.094412
vertex 0.016793 -0.018099 0.049210
vertex -0.000000 -0.018099 0.049210
endloop
endfacet
facet normal 0.032175 0.937327 0.346962
outer loop
vertex -0.000000 -0.018099 0.049210
vertex -0.000000 -0.035620 0.096543
vertex 0.022982 -0.035620 0.094412
endloop
endfacet
facet normal 0.000050 0.872300 -0.488971
outer loop
vertex 0.000000 0.000000 0.000000
vertex 0.008145 -0.000000 0.000000
vertex -0.000000 -0.006236 -0.011125
endloop
endfacet
facet normal 0.004075 0.288121 -0.957586
outer loop
vertex -0.000000 -0.017226 -0.014432
vertex -0.000000 -0.006236 -0.011125
vertex 0.007065 -0.015587 -0.013909
endloop
endfacet
facet normal 0.752281 0.408874 -0.516619
outer loop
vertex 0.008145 -0.000000 0.000000
vertex 0.016611 -0.022754 -0.005681
vertex 0.007065 -0.015587 -0.013909
endloop
endfacet
facet normal 0.482852 0.564181 -0.669741
outer loop
vertex 0.007065 -0.015587 -0.013909
vertex -0.000000 -0.006236 -0.011125
vertex 0.008145 -0.000000 0.000000
endloop
endfacet
facet normal 0.935855 0.303474 0.179104
outer loop
vertex 0.016611 -0.022754 -0.005681
vertex 0.008145 -0.000000 0.000000
vertex 0.008145 -0.021379 0.036224
endloop
endfacet
facet normal 0.771050 0.622224 0.135349
outer loop
vertex 0.008145 -0.021379 0.036224
vertex 0.015418 -0.029012 0.029888
vertex 0.016611 -0.022754 -0.005681
endloop
endfacet
facet normal 0.521672 0.799980 -0.296463
outer loop
vertex 0.016793 -0.018099 0.049210
vertex 0.045805 -0.038896 0.044141
vertex 0.032364 -0.036377 0.027289
endloop
endfacet
facet normal 0.214055 0.819647 -0.531374
outer loop
vertex 0.032364 -0.036377 0.027289
vertex 0.020051 -0.032955 0.027606
vertex 0.016793 -0.018099 0.049210
endloop
endfacet
facet normal 0.516977 0.836635 0.181042
outer loop
vertex 0.030331 -0.036365 0.018041
vertex 0.048912 -0.043868 -0.000346
vertex 0.016611 -0.022754 -0.005681
endloop
endfacet
facet normal 0.260774 0.894732 0.362563
outer loop
vertex 0.016611 -0.022754 -0.005681
vertex 0.020007 -0.033510 0.018419
vertex 0.030331 -0.036365 0.018041
endloop
endfacet
facet normal -0.231913 0.847881 0.476775
outer loop
vertex -0.000000 -0.011904 -0.023895
vertex -0.000000 -0.017226 -0.014432
vertex 0.007065 -0.015587 -0.013909
endloop
endfacet
facet normal -0.175143 0.877035 0.447364
outer loop
vertex 0.007065 -0.015587 -0.013909
vertex 0.009466 -0.011292 -0.021389
vertex -0.000000 -0.011904 -0.023895
endloop
endfacet
facet normal 0.091401 0.831374 -0.548145
outer loop
vertex -0.000000 -0.015905 -0.029964
vertex -0.000000 -0.011904 -0.023895
vertex 0.009466 -0.011292 -0.021389
endloop
endfacet
facet normal 0.000000 0.880657 -0.473754
outer loop
vertex 0.009466 -0.011292 -0.021389
vertex 0.009847 -0.015905 -0.029964
vertex -0.000000 -0.015905 -0.029964
endloop
endfacet
facet normal 0.000000 0.878553 0.477646
outer loop
vertex -0.000000 -0.012268 -0.036655
vertex -0.000000 -0.015905 -0.029964
vertex 0.009847 -0.015905 -0.029964
endloop
endfacet
facet normal 0.000000 0.878553 0.477645
outer loop
vertex 0.009847 -0.015905 -0.029964
vertex 0.008566 -0.012268 -0.036655
vertex -0.000000 -0.012268 -0.036655
endloop
endfacet
facet normal 0.532670 0.754957 -0.382495
outer loop
vertex 0.009847 -0.015905 -0.029964
vertex 0.009466 -0.011292 -0.021389
vertex 0.023281 -0.027804 -0.034740
endloop
endfacet
facet normal 0.690058 0.683048 0.239302
outer loop
vertex 0.008566 -0.012268 -0.036655
vertex 0.009847 -0.015905 -0.029964
vertex 0.023281 -0.027804 -0.034740
endloop
endfacet
facet normal 0.794700 0.601996 0.077798
outer loop
vertex 0.016611 -0.022754 -0.005681
vertex 0.023281 -0.027804 -0.034740
vertex 0.009466 -0.011292 -0.021389
endloop
endfacet
facet normal 0.166547 0.831065 0.530654
outer loop
vertex 0.009466 -0.011292 -0.021389
vertex 0.007065 -0.015587 -0.013909
vertex 0.016611 -0.022754 -0.005681
endloop
endfacet
facet normal 0.535767 0.844352 -0.004897
outer loop
vertex 0.048912 -0.043868 -0.000346
vertex 0.036838 -0.036383 -0.030666
vertex 0.023281 -0.027804 -0.034740
endloop
endfacet
facet normal 0.549251 0.835439 -0.019109
outer loop
vertex 0.023281 -0.027804 -0.034740
vertex 0.016611 -0.022754 -0.005681
vertex 0.048912 -0.043868 -0.000346
endloop
endfacet
facet normal 0.000000 0.752723 -0.658337
outer loop
vertex -0.000000 -0.019425 -0.044838
vertex -0.000000 -0.012268 -0.036655
vertex 0.008566 -0.012268 -0.036655
endloop
endfacet
facet normal 0.000000 0.752723 -0.658337
outer loop
vertex 0.008566 -0.012268 -0.036655
vertex 0.007791 -0.019425 -0.044838
vertex -0.000000 -0.019425 -0.044838
endloop
endfacet
facet normal 0.644493 0.544223 -0.537075
outer loop
vertex 0.023281 -0.027804 -0.034740
vertex 0.007791 -0.019425 -0.044838
vertex 0.008566 -0.012268 -0.036655
endloop
endfacet
facet normal 0.000000 0.996412 0.084640
outer loop
vertex -0.000000 -0.017811 -0.063839
vertex -0.000000 -0.019425 -0.044838
vertex 0.007791 -0.019425 -0.044838
endloop
endfacet
facet normal 0.000000 0.996412 0.084640
outer loop
vertex 0.007791 -0.019425 -0.044838
vertex 0.007990 -0.017811 -0.063839
vertex -0.000000 -0.017811 -0.063839
endloop
endfacet
facet normal 0.781383 0.621068 0.060956
outer loop
vertex 0.007990 -0.017811 -0.063839
vertex 0.007791 -0.019425 -0.044838
vertex 0.017083 -0.029143 -0.064937
endloop
endfacet
facet normal 0.550207 0.822626 -0.143379
outer loop
vertex 0.036838 -0.036383 -0.030666
vertex 0.017083 -0.029143 -0.064937
vertex 0.007791 -0.019425 -0.044838
endloop
endfacet
facet normal 0.566925 0.796995 -0.208316
outer loop
vertex 0.007791 -0.019425 -0.044838
vertex 0.023281 -0.027804 -0.034740
vertex 0.036838 -0.036383 -0.030666
endloop
endfacet
facet normal 0.589172 0.778393 0.216749
outer loop
vertex 0.022982 -0.035620 0.094412
vertex 0.051531 -0.053405 0.080681
vertex 0.045805 -0.038896 0.044141
endloop
endfacet
facet normal 0.593466 0.774505 0.218952
outer loop
vertex 0.045805 -0.038896 0.044141
vertex 0.016793 -0.018099 0.049210
vertex 0.022982 -0.035620 0.094412
endloop
endfacet
facet normal 0.086673 0.344817 0.934660
outer loop
vertex 0.031529 -0.098001 0.116633
vertex 0.022982 -0.035620 0.094412
vertex -0.000000 -0.035620 0.096543
endloop
endfacet
facet normal 0.087333 0.345097 0.934495
outer loop
vertex -0.000000 -0.035620 0.096543
vertex -0.000000 -0.098001 0.119579
vertex 0.031529 -0.098001 0.116633
endloop
endfacet
facet normal 0.572214 0.343649 0.744632
outer loop
vertex 0.051531 -0.053405 0.080681
vertex 0.022982 -0.035620 0.094412
vertex 0.031529 -0.098001 0.116633
endloop
endfacet
facet normal 0.572279 0.343599 0.744605
outer loop
vertex 0.031529 -0.098001 0.116633
vertex 0.057699 -0.104213 0.099386
vertex 0.051531 -0.053405 0.080681
endloop
endfacet
facet normal 0.847876 -0.058544 0.526953
outer loop
vertex 0.062053 -0.103087 0.010866
vertex 0.055809 -0.053105 0.026466
vertex 0.045805 -0.038896 0.044141
endloop
endfacet
facet normal 0.989316 0.073822 -0.125711
outer loop
vertex 0.045805 -0.038896 0.044141
vertex 0.051531 -0.053405 0.080681
vertex 0.057699 -0.104213 0.099386
endloop
endfacet
facet normal 0.974118 0.220278 0.050718
outer loop
vertex 0.045805 -0.038896 0.044141
vertex 0.057699 -0.104213 0.099386
vertex 0.062053 -0.103087 0.010866
endloop
endfacet
facet normal 0.877631 0.397500 -0.267874
outer loop
vertex 0.039858 -0.066841 -0.046262
vertex 0.024444 -0.044334 -0.063364
vertex 0.017083 -0.029143 -0.064937
endloop
endfacet
facet normal 0.851914 0.303115 -0.427042
outer loop
vertex 0.017083 -0.029143 -0.064937
vertex 0.036838 -0.036383 -0.030666
vertex 0.039858 -0.066841 -0.046262
endloop
endfacet
facet normal 0.884857 0.278819 -0.373214
outer loop
vertex 0.052916 -0.078648 -0.024124
vertex 0.039858 -0.066841 -0.046262
vertex 0.036838 -0.036383 -0.030666
endloop
endfacet
facet normal 0.909113 0.301292 -0.287640
outer loop
vertex 0.036838 -0.036383 -0.030666
vertex 0.048912 -0.043868 -0.000346
vertex 0.052916 -0.078648 -0.024124
endloop
endfacet
facet normal 0.965953 0.178974 -0.186822
outer loop
vertex 0.048912 -0.043868 -0.000346
vertex 0.055809 -0.053105 0.026466
vertex 0.062053 -0.103087 0.010866
endloop
endfacet
facet normal 0.973833 0.193539 -0.119132
outer loop
vertex 0.062053 -0.103087 0.010866
vertex 0.052916 -0.078648 -0.024124
vertex 0.048912 -0.043868 -0.000346
endloop
endfacet
facet normal 0.000000 0.532673 -0.846321
outer loop
vertex 0.007990 -0.017811 -0.063839
vertex 0.006191 -0.025813 -0.068876
vertex -0.000000 -0.025813 -0.068876
endloop
endfacet
facet normal 0.000000 0.532673 -0.846321
outer loop
vertex -0.000000 -0.025813 -0.068876
vertex -0.000000 -0.017811 -0.063839
vertex 0.007990 -0.017811 -0.063839
endloop
endfacet
facet normal 0.418878 0.414377 -0.807981
outer loop
vertex 0.017083 -0.029143 -0.064937
vertex 0.006191 -0.025813 -0.068876
vertex 0.007990 -0.017811 -0.063839
endloop
endfacet
facet normal 0.000000 0.093922 -0.995580
outer loop
vertex -0.000000 -0.039184 -0.070138
vertex -0.000000 -0.025813 -0.068876
vertex 0.006191 -0.025813 -0.068876
endloop
endfacet
facet normal 0.078380 0.057600 -0.995258
outer loop
vertex 0.006191 -0.025813 -0.068876
vertex 0.008493 -0.039460 -0.069485
vertex -0.000000 -0.039184 -0.070138
endloop
endfacet
facet normal 0.384228 0.105706 -0.917167
outer loop
vertex 0.024444 -0.044334 -0.063364
vertex 0.008493 -0.039460 -0.069485
vertex 0.006191 -0.025813 -0.068876
endloop
endfacet
facet normal 0.360090 0.078204 -0.929634
outer loop
vertex 0.006191 -0.025813 -0.068876
vertex 0.017083 -0.029143 -0.064937
vertex 0.024444 -0.044334 -0.063364
endloop
endfacet
facet normal 0.083952 -0.431270 0.898309
outer loop
vertex 0.017839 -0.162766 0.086819
vertex 0.031529 -0.098001 0.116633
vertex -0.000000 -0.098001 0.119579
endloop
endfacet
facet normal 0.219638 -0.391504 0.893579
outer loop
vertex -0.000000 -0.098001 0.119579
vertex -0.000000 -0.165488 0.090011
vertex 0.017839 -0.162766 0.086819
endloop
endfacet
facet normal 0.413831 -0.451398 0.790559
outer loop
vertex 0.057699 -0.104213 0.099386
vertex 0.031529 -0.098001 0.116633
vertex 0.017839 -0.162766 0.086819
endloop
endfacet
facet normal 0.591222 -0.532489 0.605733
outer loop
vertex 0.017839 -0.162766 0.086819
vertex 0.032075 -0.162460 0.073192
vertex 0.057699 -0.104213 0.099386
endloop
endfacet
facet normal 0.907991 -0.417137 0.039354
outer loop
vertex 0.062053 -0.103087 0.010866
vertex 0.057699 -0.104213 0.099386
vertex 0.032075 -0.162460 0.073192
endloop
endfacet
facet normal 0.910922 -0.409806 0.047748
outer loop
vertex 0.032075 -0.162460 0.073192
vertex 0.032075 -0.167748 0.027809
vertex 0.062053 -0.103087 0.010866
endloop
endfacet
facet normal 0.850285 -0.460828 -0.254269
outer loop
vertex 0.062053 -0.103087 0.010866
vertex 0.032075 -0.167748 0.027809
vertex 0.032075 -0.149236 -0.005742
endloop
endfacet
facet normal 0.722343 -0.235184 -0.650315
outer loop
vertex 0.032075 -0.149236 -0.005742
vertex 0.036013 -0.123189 -0.010788
vertex 0.062053 -0.103087 0.010866
endloop
endfacet
facet normal 0.750050 -0.434042 -0.499031
outer loop
vertex 0.052916 -0.078648 -0.024124
vertex 0.062053 -0.103087 0.010866
vertex 0.036013 -0.123189 -0.010788
endloop
endfacet
facet normal 0.869071 -0.411846 -0.274042
outer loop
vertex 0.036013 -0.123189 -0.010788
vertex 0.042551 -0.097116 -0.029238
vertex 0.052916 -0.078648 -0.024124
endloop
endfacet
facet normal 0.826172 -0.118932 -0.550723
outer loop
vertex 0.038023 -0.090511 -0.043903
vertex 0.039858 -0.066841 -0.046262
vertex 0.052916 -0.078648 -0.024124
endloop
endfacet
facet normal 0.836781 -0.353914 -0.417782
outer loop
vertex 0.052916 -0.078648 -0.024124
vertex 0.042551 -0.097116 -0.029238
vertex 0.038023 -0.090511 -0.043903
endloop
endfacet
facet normal 0.645337 -0.130013 -0.752753
outer loop
vertex 0.022504 -0.075916 -0.059573
vertex 0.024444 -0.044334 -0.063364
vertex 0.039858 -0.066841 -0.046262
endloop
endfacet
facet normal 0.644180 -0.125139 -0.754568
outer loop
vertex 0.039858 -0.066841 -0.046262
vertex 0.038023 -0.090511 -0.043903
vertex 0.022504 -0.075916 -0.059573
endloop
endfacet
facet normal 0.068288 -0.206921 -0.975972
outer loop
vertex -0.000000 -0.069832 -0.063640
vertex -0.000000 -0.039184 -0.070138
vertex 0.008493 -0.039460 -0.069485
endloop
endfacet
facet normal 0.014080 -0.192758 -0.981145
outer loop
vertex 0.008493 -0.039460 -0.069485
vertex 0.013494 -0.069832 -0.063446
vertex -0.000000 -0.069832 -0.063640
endloop
endfacet
facet normal 0.319614 -0.132277 -0.938269
outer loop
vertex 0.008493 -0.039460 -0.069485
vertex 0.024444 -0.044334 -0.063364
vertex 0.022504 -0.075916 -0.059573
endloop
endfacet
facet normal 0.312736 -0.135427 -0.940136
outer loop
vertex 0.022504 -0.075916 -0.059573
vertex 0.013494 -0.069832 -0.063446
vertex 0.008493 -0.039460 -0.069485
endloop
endfacet
facet normal 0.327159 -0.923074 0.202243
outer loop
vertex -0.000000 -0.165488 0.090011
vertex -0.000000 -0.178790 0.029295
vertex 0.032075 -0.167748 0.027809
endloop
endfacet
facet normal 0.130966 -0.984725 0.114734
outer loop
vertex 0.032075 -0.167748 0.027809
vertex 0.032075 -0.162460 0.073192
vertex 0.017839 -0.162766 0.086819
endloop
endfacet
facet normal 0.171302 -0.977403 0.123848
outer loop
vertex 0.032075 -0.167748 0.027809
vertex 0.017839 -0.162766 0.086819
vertex -0.000000 -0.165488 0.090011
endloop
endfacet
facet normal 0.442798 -0.785049 -0.433161
outer loop
vertex -0.000000 -0.162849 -0.013858
vertex 0.032075 -0.149236 -0.005742
vertex 0.032075 -0.167748 0.027809
endloop
endfacet
facet normal 0.293379 -0.896765 -0.331272
outer loop
vertex 0.032075 -0.167748 0.027809
vertex -0.000000 -0.178790 0.029295
vertex -0.000000 -0.162849 -0.013858
endloop
endfacet
facet normal 0.295247 -0.888590 0.351051
outer loop
vertex -0.000000 -0.162849 -0.013858
vertex -0.000000 -0.182000 -0.062333
vertex 0.035849 -0.166762 -0.053912
endloop
endfacet
facet normal 0.290598 -0.891636 0.347186
outer loop
vertex 0.035849 -0.166762 -0.053912
vertex 0.032075 -0.149236 -0.005742
vertex -0.000000 -0.162849 -0.013858
endloop
endfacet
facet normal 0.608939 0.769574 -0.192222
outer loop
vertex 0.022504 -0.075916 -0.059573
vertex 0.024165 -0.090586 -0.113043
vertex 0.014735 -0.085231 -0.121478
endloop
endfacet
facet normal 0.604572 0.773017 -0.192192
outer loop
vertex 0.014735 -0.085231 -0.121478
vertex 0.013494 -0.069832 -0.063446
vertex 0.022504 -0.075916 -0.059573
endloop
endfacet
facet normal 0.018746 0.966479 -0.256059
outer loop
vertex 0.013494 -0.069832 -0.063446
vertex 0.014735 -0.085231 -0.121478
vertex -0.000000 -0.084946 -0.121478
endloop
endfacet
facet normal 0.003628 0.967508 -0.252812
outer loop
vertex -0.000000 -0.084946 -0.121478
vertex -0.000000 -0.069832 -0.063640
vertex 0.013494 -0.069832 -0.063446
endloop
endfacet
facet normal 0.745288 0.649631 -0.150084
outer loop
vertex 0.038023 -0.090511 -0.043903
vertex 0.041366 -0.106858 -0.098059
vertex 0.024165 -0.090586 -0.113043
endloop
endfacet
facet normal 0.754171 0.638880 -0.151852
outer loop
vertex 0.024165 -0.090586 -0.113043
vertex 0.022504 -0.075916 -0.059573
vertex 0.038023 -0.090511 -0.043903
endloop
endfacet
facet normal 0.908275 0.411790 -0.073932
outer loop
vertex 0.042551 -0.097116 -0.029238
vertex 0.046504 -0.114497 -0.077482
vertex 0.041366 -0.106858 -0.098059
endloop
endfacet
facet normal 0.894365 0.440528 -0.077761
outer loop
vertex 0.041366 -0.106858 -0.098059
vertex 0.038023 -0.090511 -0.043903
vertex 0.042551 -0.097116 -0.029238
endloop
endfacet
facet normal 0.979481 -0.150073 0.134520
outer loop
vertex 0.036013 -0.123189 -0.010788
vertex 0.039978 -0.140765 -0.059263
vertex 0.046504 -0.114497 -0.077482
endloop
endfacet
facet normal 0.979432 -0.150442 0.134464
outer loop
vertex 0.046504 -0.114497 -0.077482
vertex 0.042551 -0.097116 -0.029238
vertex 0.036013 -0.123189 -0.010788
endloop
endfacet
facet normal 0.983584 -0.130566 0.124561
outer loop
vertex 0.032075 -0.149236 -0.005742
vertex 0.035849 -0.166762 -0.053912
vertex 0.039978 -0.140765 -0.059263
endloop
endfacet
facet normal 0.984239 -0.124465 0.125624
outer loop
vertex 0.039978 -0.140765 -0.059263
vertex 0.036013 -0.123189 -0.010788
vertex 0.032075 -0.149236 -0.005742
endloop
endfacet
facet normal -0.990759 0.123957 0.055051
outer loop
vertex -0.016322 -0.033310 0.023291
vertex -0.015418 -0.029012 0.029888
vertex -0.016611 -0.022754 -0.005681
endloop
endfacet
facet normal -0.453775 0.835803 0.309066
outer loop
vertex -0.016611 -0.022754 -0.005681
vertex -0.020007 -0.033510 0.018419
vertex -0.016322 -0.033310 0.023291
endloop
endfacet
facet normal -0.268556 0.949144 0.164325
outer loop
vertex -0.035827 -0.038706 0.022580
vertex -0.016322 -0.033310 0.023291
vertex -0.020007 -0.033510 0.018419
endloop
endfacet
facet normal -0.268556 0.949144 0.164325
outer loop
vertex -0.020007 -0.033510 0.018419
vertex -0.030331 -0.036365 0.018041
vertex -0.035827 -0.038706 0.022580
endloop
endfacet
facet normal -0.245530 0.925524 -0.288306
outer loop
vertex -0.020051 -0.032955 0.027606
vertex -0.016322 -0.033310 0.023291
vertex -0.035827 -0.038706 0.022580
endloop
endfacet
facet normal -0.250835 0.928223 -0.274741
outer loop
vertex -0.035827 -0.038706 0.022580
vertex -0.032364 -0.036377 0.027289
vertex -0.020051 -0.032955 0.027606
endloop
endfacet
facet normal -0.442346 0.777957 -0.446222
outer loop
vertex -0.015418 -0.029012 0.029888
vertex -0.016322 -0.033310 0.023291
vertex -0.020051 -0.032955 0.027606
endloop
endfacet
facet normal -0.414401 0.777870 -0.472430
outer loop
vertex -0.020051 -0.032955 0.027606
vertex -0.016793 -0.018099 0.049210
vertex -0.008145 -0.021379 0.036224
endloop
endfacet
facet normal -0.464922 0.784141 -0.411059
outer loop
vertex -0.020051 -0.032955 0.027606
vertex -0.008145 -0.021379 0.036224
vertex -0.015418 -0.029012 0.029888
endloop
endfacet
facet normal -0.596918 0.755656 -0.269580
outer loop
vertex -0.035827 -0.038706 0.022580
vertex -0.055809 -0.053105 0.026466
vertex -0.045805 -0.038896 0.044141
endloop
endfacet
facet normal -0.381881 0.908682 -0.168714
outer loop
vertex -0.045805 -0.038896 0.044141
vertex -0.032364 -0.036377 0.027289
vertex -0.035827 -0.038706 0.022580
endloop
endfacet
facet normal -0.561479 0.816119 0.136713
outer loop
vertex -0.048912 -0.043868 -0.000346
vertex -0.055809 -0.053105 0.026466
vertex -0.035827 -0.038706 0.022580
endloop
endfacet
facet normal -0.383965 0.923279 0.011267
outer loop
vertex -0.035827 -0.038706 0.022580
vertex -0.030331 -0.036365 0.018041
vertex -0.048912 -0.043868 -0.000346
endloop
endfacet
facet normal -0.000045 0.861202 0.508262
outer loop
vertex 0.000000 0.000000 0.000000
vertex -0.008145 -0.000000 0.000000
vertex -0.008145 -0.021379 0.036224
endloop
endfacet
facet normal 0.000000 0.861198 0.508270
outer loop
vertex -0.008145 -0.021379 0.036224
vertex -0.000000 -0.021379 0.036224
vertex 0.000000 0.000000 0.000000
endloop
endfacet
facet normal 0.000000 0.969549 -0.244898
outer loop
vertex -0.016793 -0.018099 0.049210
vertex -0.000000 -0.018099 0.049210
vertex -0.000000 -0.021379 0.036224
endloop
endfacet
facet normal 0.000000 0.969549 -0.244899
outer loop
vertex -0.000000 -0.021379 0.036224
vertex -0.008145 -0.021379 0.036224
vertex -0.016793 -0.018099 0.049210
endloop
endfacet
facet normal -0.032175 0.937327 0.346962
outer loop
vertex -0.022982 -0.035620 0.094412
vertex -0.000000 -0.035620 0.096543
vertex -0.000000 -0.018099 0.049210
endloop
endfacet
facet normal 0.000000 0.932406 0.361413
outer loop
vertex -0.000000 -0.018099 0.049210
vertex -0.016793 -0.018099 0.049210
vertex -0.022982 -0.035620 0.094412
endloop
endfacet
facet normal -0.000050 0.872300 -0.488971
outer loop
vertex 0.000000 0.000000 0.000000
vertex -0.000000 -0.006236 -0.011125
vertex -0.008145 -0.000000 0.000000
endloop
endfacet
facet normal -0.004075 0.288121 -0.957586
outer loop
vertex -0.000000 -0.017226 -0.014432
vertex -0.007065 -0.015587 -0.013909
vertex -0.000000 -0.006236 -0.011125
endloop
endfacet
facet normal -0.482852 0.564182 -0.669741
outer loop
vertex -0.008145 -0.000000 0.000000
vertex -0.000000 -0.006236 -0.011125
vertex -0.007065 -0.015587 -0.013909
endloop
endfacet
facet normal -0.752281 0.408874 -0.516619
outer loop
vertex -0.007065 -0.015587 -0.013909
vertex -0.016611 -0.022754 -0.005681
vertex -0.008145 -0.000000 0.000000
endloop
endfacet
facet normal -0.771050 0.622224 0.135349
outer loop
vertex -0.016611 -0.022754 -0.005681
vertex -0.015418 -0.029012 0.029888
vertex -0.008145 -0.021379 0.036224
endloop
endfacet
facet normal -0.935855 0.303474 0.179104
outer loop
vertex -0.008145 -0.021379 0.036224
vertex -0.008145 -0.000000 0.000000
vertex -0.016611 -0.022754 -0.005681
endloop
endfacet
facet normal -0.214056 0.819647 -0.531374
outer loop
vertex -0.016793 -0.018099 0.049210
vertex -0.020051 -0.032955 0.027606
vertex -0.032364 -0.036377 0.027289
endloop
endfacet
facet normal -0.521672 0.799980 -0.296463
outer loop
vertex -0.032364 -0.036377 0.027289
vertex -0.045805 -0.038896 0.044141
vertex -0.016793 -0.018099 0.049210
endloop
endfacet
facet normal -0.516977 0.836635 0.181042
outer loop
vertex -0.016611 -0.022754 -0.005681
vertex -0.048912 -0.043868 -0.000346
vertex -0.030331 -0.036365 0.018041
endloop
endfacet
facet normal -0.260774 0.894732 0.362563
outer loop
vertex -0.030331 -0.036365 0.018041
vertex -0.020007 -0.033510 0.018419
vertex -0.016611 -0.022754 -0.005681
endloop
endfacet
facet normal 0.175143 0.877035 0.447364
outer loop
vertex -0.000000 -0.011904 -0.023895
vertex -0.009466 -0.011292 -0.021389
vertex -0.007065 -0.015587 -0.013909
endloop
endfacet
facet normal 0.231913 0.847881 0.476775
outer loop
vertex -0.007065 -0.015587 -0.013909
vertex -0.000000 -0.017226 -0.014432
vertex -0.000000 -0.011904 -0.023895
endloop
endfacet
facet normal 0.000000 0.880657 -0.473754
outer loop
vertex -0.000000 -0.015905 -0.029964
vertex -0.009847 -0.015905 -0.029964
vertex -0.009466 -0.011292 -0.021389
endloop
endfacet
facet normal -0.091401 0.831374 -0.548145
outer loop
vertex -0.009466 -0.011292 -0.021389
vertex -0.000000 -0.011904 -0.023895
vertex -0.000000 -0.015905 -0.029964
endloop
endfacet
facet normal 0.000000 0.878553 0.477645
outer loop
vertex -0.000000 -0.012268 -0.036655
vertex -0.008566 -0.012268 -0.036655
vertex -0.009847 -0.015905 -0.029964
endloop
endfacet
facet normal 0.000000 0.878553 0.477645
outer loop
vertex -0.009847 -0.015905 -0.029964
vertex -0.000000 -0.015905 -0.029964
vertex -0.000000 -0.012268 -0.036655
endloop
endfacet
facet normal -0.532670 0.754957 -0.382495
outer loop
vertex -0.009847 -0.015905 -0.029964
vertex -0.023281 -0.027804 -0.034740
vertex -0.009466 -0.011292 -0.021389
endloop
endfacet
facet normal -0.690058 0.683048 0.239302
outer loop
vertex -0.008566 -0.012268 -0.036655
vertex -0.023281 -0.027804 -0.034740
vertex -0.009847 -0.015905 -0.029964
endloop
endfacet
facet normal -0.166547 0.831065 0.530654
outer loop
vertex -0.016611 -0.022754 -0.005681
vertex -0.007065 -0.015587 -0.013909
vertex -0.009466 -0.011292 -0.021389
endloop
endfacet
facet normal -0.794700 0.601996 0.077798
outer loop
vertex -0.009466 -0.011292 -0.021389
vertex -0.023281 -0.027804 -0.034740
vertex -0.016611 -0.022754 -0.005681
endloop
endfacet
facet normal -0.549251 0.835439 -0.019109
outer loop
vertex -0.048912 -0.043868 -0.000346
vertex -0.016611 -0.022754 -0.005681
vertex -0.023281 -0.027804 -0.034740
endloop
endfacet
facet normal -0.535767 0.844352 -0.004898
outer loop
vertex -0.023281 -0.027804 -0.034740
vertex -0.036838 -0.036383 -0.030666
vertex -0.048912 -0.043868 -0.000346
endloop
endfacet
facet normal 0.000000 0.752723 -0.658337
outer loop
vertex -0.000000 -0.019425 -0.044838
vertex -0.007791 -0.019425 -0.044838
vertex -0.008566 -0.012268 -0.036655
endloop
endfacet
facet normal 0.000000 0.752723 -0.658337
outer loop
vertex -0.008566 -0.012268 -0.036655
vertex -0.000000 -0.012268 -0.036655
vertex -0.000000 -0.019425 -0.044838
endloop
endfacet
facet normal -0.644493 0.544223 -0.537075
outer loop
vertex -0.023281 -0.027804 -0.034740
vertex -0.008566 -0.012268 -0.036655
vertex -0.007791 -0.019425 -0.044838
endloop
endfacet
facet normal 0.000000 0.996412 0.084640
outer loop
vertex -0.000000 -0.017811 -0.063839
vertex -0.007990 -0.017811 -0.063839
vertex -0.007791 -0.019425 -0.044838
endloop
endfacet
facet normal 0.000000 0.996412 0.084640
outer loop
vertex -0.007791 -0.019425 -0.044838
vertex -0.000000 -0.019425 -0.044838
vertex -0.000000 -0.017811 -0.063839
endloop
endfacet
facet normal -0.781383 0.621068 0.060956
outer loop
vertex -0.007990 -0.017811 -0.063839
vertex -0.017083 -0.029143 -0.064937
vertex -0.007791 -0.019425 -0.044838
endloop
endfacet
facet normal -0.566926 0.796993 -0.208319
outer loop
vertex -0.036838 -0.036383 -0.030666
vertex -0.023281 -0.027804 -0.034740
vertex -0.007791 -0.019425 -0.044838
endloop
endfacet
facet normal -0.550207 0.822626 -0.143379
outer loop
vertex -0.007791 -0.019425 -0.044838
vertex -0.017083 -0.029143 -0.064937
vertex -0.036838 -0.036383 -0.030666
endloop
endfacet
facet normal -0.593466 0.774505 0.218952
outer loop
vertex -0.022982 -0.035620 0.094412
vertex -0.016793 -0.018099 0.049210
vertex -0.045805 -0.038896 0.044141
endloop
endfacet
facet normal -0.589172 0.778393 0.216749
outer loop
vertex -0.045805 -0.038896 0.044141
vertex -0.051531 -0.053405 0.080681
vertex -0.022982 -0.035620 0.094412
endloop
endfacet
facet normal -0.087333 0.345097 0.934495
outer loop
vertex -0.031529 -0.098001 0.116633
vertex -0.000000 -0.098001 0.119579
vertex -0.000000 -0.035620 0.096543
endloop
endfacet
facet normal -0.086673 0.344817 0.934660
outer loop
vertex -0.000000 -0.035620 0.096543
vertex -0.022982 -0.035620 0.094412
vertex -0.031529 -0.098001 0.116633
endloop
endfacet
facet normal -0.572279 0.343598 0.744605
outer loop
vertex -0.051531 -0.053405 0.080681
vertex -0.057699 -0.104213 0.099386
vertex -0.031529 -0.098001 0.116633
endloop
endfacet
facet normal -0.572214 0.343649 0.744632
outer loop
vertex -0.031529 -0.098001 0.116633
vertex -0.022982 -0.035620 0.094412
vertex -0.051531 -0.053405 0.080681
endloop
endfacet
facet normal -0.847883 -0.058527 0.526943
outer loop
vertex -0.045805 -0.038896 0.044141
vertex -0.055809 -0.053105 0.026466
vertex -0.062054 -0.103087 0.010866
endloop
endfacet
facet normal -0.989059 0.138635 0.050425
outer loop
vertex -0.062054 -0.103087 0.010866
vertex -0.057699 -0.104213 0.099386
vertex -0.051531 -0.053405 0.080681
endloop
endfacet
facet normal -0.962669 0.266939 -0.044856
outer loop
vertex -0.062054 -0.103087 0.010866
vertex -0.051531 -0.053405 0.080681
vertex -0.045805 -0.038896 0.044141
endloop
endfacet
facet normal -0.851914 0.303115 -0.427042
outer loop
vertex -0.039858 -0.066841 -0.046262
vertex -0.036838 -0.036383 -0.030666
vertex -0.017083 -0.029143 -0.064937
endloop
endfacet
facet normal -0.877631 0.397500 -0.267875
outer loop
vertex -0.017083 -0.029143 -0.064937
vertex -0.024444 -0.044334 -0.063364
vertex -0.039858 -0.066841 -0.046262
endloop
endfacet
facet normal -0.909113 0.301292 -0.287641
outer loop
vertex -0.052916 -0.078648 -0.024124
vertex -0.048912 -0.043868 -0.000346
vertex -0.036838 -0.036383 -0.030666
endloop
endfacet
facet normal -0.884857 0.278819 -0.373213
outer loop
vertex -0.036838 -0.036383 -0.030666
vertex -0.039858 -0.066841 -0.046262
vertex -0.052916 -0.078648 -0.024124
endloop
endfacet
facet normal -0.973828 0.193552 -0.119151
outer loop
vertex -0.048912 -0.043868 -0.000346
vertex -0.052916 -0.078648 -0.024124
vertex -0.062054 -0.103087 0.010866
endloop
endfacet
facet normal -0.965951 0.178993 -0.186815
outer loop
vertex -0.062054 -0.103087 0.010866
vertex -0.055809 -0.053105 0.026466
vertex -0.048912 -0.043868 -0.000346
endloop
endfacet
facet normal 0.000000 0.532673 -0.846321
outer loop
vertex -0.007990 -0.017811 -0.063839
vertex -0.000000 -0.017811 -0.063839
vertex -0.000000 -0.025813 -0.068876
endloop
endfacet
facet normal 0.000000 0.532673 -0.846321
outer loop
vertex -0.000000 -0.025813 -0.068876
vertex -0.006191 -0.025813 -0.068876
vertex -0.007990 -0.017811 -0.063839
endloop
endfacet
facet normal -0.418878 0.414377 -0.807981
outer loop
vertex -0.017083 -0.029143 -0.064937
vertex -0.007990 -0.017811 -0.063839
vertex -0.006191 -0.025813 -0.068876
endloop
endfacet
facet normal -0.078379 0.057600 -0.995258
outer loop
vertex -0.000000 -0.039184 -0.070138
vertex -0.008493 -0.039460 -0.069485
vertex -0.006191 -0.025813 -0.068876
endloop
endfacet
facet normal 0.000000 0.093922 -0.995580
outer loop
vertex -0.006191 -0.025813 -0.068876
vertex -0.000000 -0.025813 -0.068876
vertex -0.000000 -0.039184 -0.070138
endloop
endfacet
facet normal -0.360090 0.078204 -0.929634
outer loop
vertex -0.024444 -0.044334 -0.063364
vertex -0.017083 -0.029143 -0.064937
vertex -0.006191 -0.025813 -0.068876
endloop
endfacet
facet normal -0.384228 0.105706 -0.917167
outer loop
vertex -0.006191 -0.025813 -0.068876
vertex -0.008493 -0.039460 -0.069485
vertex -0.024444 -0.044334 -0.063364
endloop
endfacet
facet normal -0.219638 -0.391504 0.893579
outer loop
vertex -0.017839 -0.162766 0.086819
vertex -0.000000 -0.165488 0.090011
vertex -0.000000 -0.098001 0.119579
endloop
endfacet
facet normal -0.083952 -0.431270 0.898308
outer loop
vertex -0.000000 -0.098001 0.119579
vertex -0.031529 -0.098001 0.116633
vertex -0.017839 -0.162766 0.086819
endloop
endfacet
facet normal -0.591222 -0.532489 0.605733
outer loop
vertex -0.057699 -0.104213 0.099386
vertex -0.032075 -0.162460 0.073192
vertex -0.017839 -0.162766 0.086819
endloop
endfacet
facet normal -0.413830 -0.451398 0.790560
outer loop
vertex -0.017839 -0.162766 0.086819
vertex -0.031529 -0.098001 0.116633
vertex -0.057699 -0.104213 0.099386
endloop
endfacet
facet normal -0.907989 -0.417141 0.039364
outer loop
vertex -0.062054 -0.103087 0.010866
vertex -0.032075 -0.162460 0.073192
vertex -0.057699 -0.104213 0.099386
endloop
endfacet
facet normal -0.910917 -0.409817 0.047749
outer loop
vertex -0.032075 -0.162460 0.073192
vertex -0.062054 -0.103087 0.010866
vertex -0.032075 -0.167748 0.027809
endloop
endfacet
facet normal -0.722324 -0.235185 -0.650335
outer loop
vertex -0.062054 -0.103087 0.010866
vertex -0.036013 -0.123189 -0.010788
vertex -0.032075 -0.149236 -0.005742
endloop
endfacet
facet normal -0.850277 -0.460840 -0.254275
outer loop
vertex -0.032075 -0.149236 -0.005742
vertex -0.032075 -0.167748 0.027809
vertex -0.062054 -0.103087 0.010866
endloop
endfacet
facet normal -0.869071 -0.411846 -0.274043
outer loop
vertex -0.052916 -0.078648 -0.024124
vertex -0.042551 -0.097116 -0.029238
vertex -0.036013 -0.123189 -0.010788
endloop
endfacet
facet normal -0.750035 -0.434043 -0.499054
outer loop
vertex -0.036013 -0.123189 -0.010788
vertex -0.062054 -0.103087 0.010866
vertex -0.052916 -0.078648 -0.024124
endloop
endfacet
facet normal -0.836781 -0.353914 -0.417782
outer loop
vertex -0.038023 -0.090511 -0.043903
vertex -0.042551 -0.097116 -0.029238
vertex -0.052916 -0.078648 -0.024124
endloop
endfacet
facet normal -0.826172 -0.118931 -0.550723
outer loop
vertex -0.052916 -0.078648 -0.024124
vertex -0.039858 -0.066841 -0.046262
vertex -0.038023 -0.090511 -0.043903
endloop
endfacet
facet normal -0.644180 -0.125139 -0.754568
outer loop
vertex -0.022504 -0.075916 -0.059573
vertex -0.038023 -0.090511 -0.043903
vertex -0.039858 -0.066841 -0.046262
endloop
endfacet
facet normal -0.645337 -0.130013 -0.752753
outer loop
vertex -0.039858 -0.066841 -0.046262
vertex -0.024444 -0.044334 -0.063364
vertex -0.022504 -0.075916 -0.059573
endloop
endfacet
facet normal -0.014080 -0.192758 -0.981145
outer loop
vertex -0.000000 -0.069832 -0.063640
vertex -0.013494 -0.069832 -0.063446
vertex -0.008493 -0.039460 -0.069485
endloop
endfacet
facet normal -0.068287 -0.206921 -0.975972
outer loop
vertex -0.008493 -0.039460 -0.069485
vertex -0.000000 -0.039184 -0.070138
vertex -0.000000 -0.069832 -0.063640
endloop
endfacet
facet normal -0.312735 -0.135428 -0.940136
outer loop
vertex -0.008493 -0.039460 -0.069485
vertex -0.013494 -0.069832 -0.063446
vertex -0.022504 -0.075916 -0.059573
endloop
endfacet
facet normal -0.319614 -0.132277 -0.938269
outer loop
vertex -0.022504 -0.075916 -0.059573
vertex -0.024444 -0.044334 -0.063364
vertex -0.008493 -0.039460 -0.069485
endloop
endfacet
facet normal -0.327159 -0.923074 0.202243
outer loop
vertex -0.032075 -0.167748 0.027809
vertex -0.000000 -0.178790 0.029295
vertex -0.000000 -0.165488 0.090011
endloop
endfacet
facet normal -0.177341 -0.970473 0.163502
outer loop
vertex -0.000000 -0.165488 0.090011
vertex -0.017839 -0.162766 0.086819
vertex -0.032075 -0.162460 0.073192
endloop
endfacet
facet normal -0.152634 -0.981642 0.114376
outer loop
vertex -0.000000 -0.165488 0.090011
vertex -0.032075 -0.162460 0.073192
vertex -0.032075 -0.167748 0.027809
endloop
endfacet
facet normal -0.293379 -0.896765 -0.331272
outer loop
vertex -0.000000 -0.162849 -0.013858
vertex -0.000000 -0.178790 0.029295
vertex -0.032075 -0.167748 0.027809
endloop
endfacet
facet normal -0.442798 -0.785049 -0.433161
outer loop
vertex -0.032075 -0.167748 0.027809
vertex -0.032075 -0.149236 -0.005742
vertex -0.000000 -0.162849 -0.013858
endloop
endfacet
facet normal -0.290598 -0.891636 0.347186
outer loop
vertex -0.000000 -0.162849 -0.013858
vertex -0.032075 -0.149236 -0.005742
vertex -0.035849 -0.166762 -0.053912
endloop
endfacet
facet normal -0.295247 -0.888590 0.351051
outer loop
vertex -0.035849 -0.166762 -0.053912
vertex -0.000000 -0.182000 -0.062333
vertex -0.000000 -0.162849 -0.013858
endloop
endfacet
facet normal -0.604572 0.773017 -0.192192
outer loop
vertex -0.022504 -0.075916 -0.059573
vertex -0.013494 -0.069832 -0.063446
vertex -0.014735 -0.085231 -0.121478
endloop
endfacet
facet normal -0.608939 0.769574 -0.192222
outer loop
vertex -0.014735 -0.085231 -0.121478
vertex -0.024165 -0.090586 -0.113043
vertex -0.022504 -0.075916 -0.059573
endloop
endfacet
facet normal -0.003628 0.967509 -0.252812
outer loop
vertex -0.013494 -0.069832 -0.063446
vertex -0.000000 -0.069832 -0.063640
vertex -0.000000 -0.084946 -0.121478
endloop
endfacet
facet normal -0.018746 0.966479 -0.256059
outer loop
vertex -0.000000 -0.084946 -0.121478
vertex -0.014735 -0.085231 -0.121478
vertex -0.013494 -0.069832 -0.063446
endloop
endfacet
facet normal -0.754171 0.638880 -0.151853
outer loop
vertex -0.038023 -0.090511 -0.043903
vertex -0.022504 -0.075916 -0.059573
vertex -0.024165 -0.090586 -0.113043
endloop
endfacet
facet normal -0.745288 0.649631 -0.150084
outer loop
vertex -0.024165 -0.090586 -0.113043
vertex -0.041366 -0.106858 -0.098059
vertex -0.038023 -0.090511 -0.043903
endloop
endfacet
facet normal -0.894365 0.440528 -0.077761
outer loop
vertex -0.042551 -0.097116 -0.029238
vertex -0.038023 -0.090511 -0.043903
vertex -0.041366 -0.106858 -0.098059
endloop
endfacet
facet normal -0.908275 0.411790 -0.073932
outer loop
vertex -0.041366 -0.106858 -0.098059
vertex -0.046505 -0.114497 -0.077482
vertex -0.042551 -0.097116 -0.029238
endloop
endfacet
facet normal -0.979432 -0.150442 0.134464
outer loop
vertex -0.036013 -0.123189 -0.010788
vertex -0.042551 -0.097116 -0.029238
vertex -0.046505 -0.114497 -0.077482
endloop
endfacet
facet normal -0.979481 -0.150073 0.134520
outer loop
vertex -0.046505 -0.114497 -0.077482
vertex -0.039978 -0.140765 -0.059263
vertex -0.036013 -0.123189 -0.010788
endloop
endfacet
facet normal -0.984239 -0.124465 0.125624
outer loop
vertex -0.032075 -0.149236 -0.005742
vertex -0.036013 -0.123189 -0.010788
vertex -0.039978 -0.140765 -0.059263
endloop
endfacet
facet normal -0.983584 -0.130566 0.124561
outer loop
vertex -0.039978 -0.140765 -0.059263
vertex -0.035849 -0.166762 -0.053912
vertex -0.032075 -0.149236 -0.005742
endloop
endfacet
endsolid Exported from Blender-2.79 (sub 0)
