# Blender v2.80 (sub 40) OBJ File: ''
# www.blender.org
mtllib shroom.mtl
o Mushroom.shapes_Cube.007
v 0.003922 0.012801 -0.003922
v 0.007601 0.006090 -0.007601
v 0.003922 0.012801 0.003922
v 0.007601 0.006090 0.007601
v -0.003922 0.012801 -0.003922
v -0.007601 0.006090 -0.007601
v -0.003922 0.012801 0.003922
v -0.007601 0.006090 0.007601
v 0.005506 -0.000405 -0.005506
v 0.005506 -0.000405 0.005506
v -0.005506 -0.000405 -0.005506
v -0.005506 -0.000405 0.005506
v 0.001971 0.005330 -0.001971
v 0.001971 0.005330 0.001971
v -0.001971 0.005330 -0.001971
v -0.001971 0.005330 0.001971
v 0.001233 0.000909 -0.001233
v 0.001233 0.000909 0.001233
v -0.001233 0.000909 -0.001233
v -0.001233 0.000909 0.001233
v 0.000925 -0.001784 -0.000925
v 0.000925 -0.001784 0.000925
v -0.000925 -0.001784 -0.000925
v -0.000925 -0.001784 0.000925
v -0.010451 0.006090 0.000000
v 0.000000 0.006090 -0.010451
v 0.006074 0.010396 -0.006074
v -0.006074 0.010396 0.006074
v 0.006074 0.010396 0.006074
v -0.006074 0.010396 -0.006074
v -0.000000 0.013257 0.004478
v 0.004478 0.013257 -0.000000
v 0.000000 0.006090 0.010451
v -0.004478 0.013257 0.000000
v 0.000000 0.013257 -0.004478
v 0.010451 0.006090 0.000000
v -0.007571 -0.000405 0.000000
v -0.000000 -0.000405 -0.007571
v 0.000000 -0.000405 0.007571
v 0.007571 -0.000405 -0.000000
v 0.007199 0.001460 -0.007199
v -0.007199 0.001460 -0.007199
v -0.007199 0.001460 0.007199
v 0.007199 0.001460 0.007199
v -0.002710 0.005330 0.000000
v -0.000000 0.005330 -0.002710
v 0.000000 0.005330 0.002710
v 0.002710 0.005330 -0.000000
v -0.003519 0.002369 0.003519
v 0.003519 0.002369 0.003519
v -0.003519 0.002369 -0.003519
v 0.003519 0.002369 -0.003519
v -0.001696 0.000909 0.000000
v 0.000000 0.000909 -0.001696
v 0.000000 0.000909 0.001696
v 0.001696 0.000909 -0.000000
v 0.001326 0.004097 0.001326
v 0.001326 0.004097 -0.001326
v -0.001326 0.004097 -0.001326
v -0.001326 0.004097 0.001326
v -0.001128 -0.001886 -0.000000
v 0.000000 -0.001886 -0.001128
v 0.000000 -0.001886 0.001128
v 0.001128 -0.001886 0.000000
v 0.001181 -0.001096 -0.001181
v -0.001181 -0.001096 -0.001181
v -0.001181 -0.001096 0.001181
v 0.001181 -0.001096 0.001181
v -0.000000 0.014215 -0.000000
v 0.000000 0.010441 0.008293
v -0.008293 0.010441 0.000000
v -0.000000 0.001460 -0.009899
v 0.008293 0.010441 0.000000
v -0.000000 0.010441 -0.008293
v -0.000000 0.002369 0.004838
v 0.000000 0.001460 0.009899
v -0.009899 0.001460 0.000000
v 0.009899 0.001460 0.000000
v 0.001823 0.004097 -0.000000
v -0.004838 0.002369 -0.000000
v 0.004838 0.002369 0.000000
v 0.000000 0.002369 -0.004838
v -0.000000 -0.001106 -0.001624
v -0.000000 0.004097 -0.001823
v 0.000000 0.004097 0.001823
v -0.001823 0.004097 0.000000
v 0.000000 -0.002101 -0.000000
v 0.000000 -0.001106 0.001624
v -0.001624 -0.001106 0.000000
v 0.001624 -0.001106 -0.000000
vt 0.091874 0.577695
vt 0.081360 0.512443
vt 0.108359 0.500122
vt 0.117916 0.595428
vt 0.078192 0.441620
vt 0.099068 0.404860
vt 0.123068 0.389793
vt 0.135624 0.487845
vt 0.141086 0.591510
vt 0.170592 0.732852
vt 0.157715 0.660498
vt 0.158160 0.482932
vt 0.176552 0.471612
vt 0.131915 0.303554
vt 0.143455 0.062086
vt 0.093499 0.305098
vt 0.089776 0.181606
vt 0.063048 0.399455
vt 0.041153 0.299221
vt 0.040648 0.502024
vt 0.025741 0.502590
vt 0.013805 0.347039
vt 0.069138 0.644020
vt 0.058008 0.657107
vt 0.047790 0.659737
vt 0.014426 0.501419
vt 0.000080 0.348536
vt 0.081453 0.613396
vt 0.123561 0.686699
vt 0.123854 0.759003
vt 0.059261 0.511871
vt 0.496033 0.277628
vt 0.384978 0.319279
vt 0.385488 0.261882
vt 0.454659 0.235523
vt 0.273923 0.277668
vt 0.316038 0.236288
vt 0.350326 0.202345
vt 0.385726 0.214984
vt 0.420718 0.201249
vt 0.192191 0.469927
vt 0.173859 0.766967
vt 0.185128 0.008875
vt 0.218236 0.000080
vt 0.204389 0.471932
vt 0.171395 0.775375
vt 0.154876 0.002864
vt 0.088933 0.181923
vt 0.099045 0.178116
vt 0.186556 0.001472
vt 0.022990 0.360982
vt 0.011535 0.354759
vt 0.109158 0.174308
vt 0.118385 0.791449
vt 0.109658 0.799043
vt 0.419630 0.130920
vt 0.433373 0.165879
vt 0.404666 0.166078
vt 0.398894 0.151930
vt 0.399700 0.180529
vt 0.389329 0.170661
vt 0.390743 0.166416
vt 0.389013 0.162289
vt 0.232277 0.166661
vt 0.289676 0.167159
vt 0.273923 0.055638
vt 0.315297 0.097743
vt 0.349238 0.132017
vt 0.336583 0.167387
vt 0.496033 0.055598
vt 0.537678 0.166605
vt 0.480280 0.166107
vt 0.453918 0.096978
vt 0.384978 0.013987
vt 0.384468 0.071384
vt 0.384230 0.118282
vt 0.380627 0.162605
vt 0.384761 0.160877
vt 0.384927 0.165890
vt 0.384399 0.166129
vt 0.385483 0.166056
vt 0.384979 0.166607
vt 0.384963 0.166618
vt 0.384951 0.166632
vt 0.384424 0.146971
vt 0.370256 0.152737
vt 0.385532 0.186295
vt 0.371062 0.181336
vt 0.380943 0.170977
vt 0.385195 0.172389
vt 0.365290 0.167188
vt 0.379212 0.166850
vt 0.384978 0.166633
vt 0.384962 0.166647
vt 0.384993 0.166619
vt 0.385004 0.166634
vt 0.384992 0.166648
vt 0.384977 0.166659
vt 0.385029 0.167376
vt 0.385557 0.167137
vt 0.384473 0.167210
vt 0.379212 0.166850
vt 0.384233 0.166683
vt 0.385723 0.166583
vn 0.1747 0.9690 -0.1747
vn -0.1747 0.9690 -0.1747
vn -0.1747 0.9690 0.1747
vn 0.1747 0.9690 0.1747
vn 0.3169 0.4181 0.8513
vn 0.2056 0.7721 0.6014
vn -0.2056 0.7721 0.6014
vn -0.3169 0.4181 0.8513
vn -0.8513 0.4181 0.3169
vn -0.6014 0.7721 0.2056
vn -0.6014 0.7721 -0.2056
vn -0.8513 0.4181 -0.3169
vn -0.3490 -0.1109 -0.9306
vn 0.3490 -0.1109 -0.9306
vn 0.2283 -0.7598 -0.6087
vn -0.2283 -0.7598 -0.6087
vn 0.8513 0.4181 -0.3169
vn 0.6014 0.7721 -0.2056
vn 0.6014 0.7721 0.2056
vn 0.8513 0.4181 0.3169
vn -0.3169 0.4181 -0.8513
vn -0.2056 0.7721 -0.6014
vn 0.2056 0.7721 -0.6014
vn 0.3169 0.4181 -0.8513
vn -0.2581 -0.6780 -0.6883
vn 0.2581 -0.6780 -0.6883
vn 0.2913 -0.5584 -0.7768
vn -0.2913 -0.5584 -0.7768
vn 0.3490 -0.1109 0.9306
vn -0.3490 -0.1109 0.9306
vn -0.2283 -0.7598 0.6087
vn 0.2283 -0.7598 0.6087
vn -0.9306 -0.1109 0.3490
vn -0.9306 -0.1109 -0.3490
vn -0.6087 -0.7598 -0.2283
vn -0.6087 -0.7598 0.2283
vn 0.9306 -0.1109 -0.3490
vn 0.9306 -0.1109 0.3490
vn 0.6087 -0.7598 0.2283
vn 0.6087 -0.7598 -0.2283
vn 0.7764 -0.5589 -0.2912
vn 0.7764 -0.5589 0.2912
vn 0.9357 -0.0372 0.3509
vn 0.9357 -0.0372 -0.3509
vn 0.6883 -0.6780 -0.2581
vn 0.6883 -0.6780 0.2581
vn 0.7768 -0.5584 0.2913
vn 0.7768 -0.5584 -0.2913
vn -0.6883 -0.6780 0.2581
vn -0.6883 -0.6780 -0.2581
vn -0.7768 -0.5584 -0.2913
vn -0.7768 -0.5584 0.2913
vn 0.2581 -0.6780 0.6883
vn -0.2581 -0.6780 0.6883
vn -0.2913 -0.5584 0.7768
vn 0.2913 -0.5584 0.7768
vn -0.3515 -0.0335 -0.9356
vn 0.3515 -0.0335 -0.9356
vn 0.2813 -0.4760 -0.8332
vn -0.2813 -0.4760 -0.8332
vn -0.2912 -0.5589 -0.7764
vn 0.2912 -0.5589 -0.7764
vn 0.3509 -0.0372 -0.9357
vn -0.3509 -0.0372 -0.9357
vn 0.2912 -0.5589 0.7764
vn -0.2912 -0.5589 0.7764
vn -0.3509 -0.0372 0.9357
vn 0.3509 -0.0372 0.9357
vn -0.7764 -0.5589 0.2912
vn -0.7764 -0.5589 -0.2912
vn -0.9357 -0.0372 -0.3509
vn -0.9357 -0.0372 0.3509
vn -0.1667 -0.9718 -0.1667
vn 0.1667 -0.9718 -0.1667
vn 0.1667 -0.9718 0.1667
vn -0.1667 -0.9718 0.1667
vn 0.3515 -0.0335 0.9356
vn -0.3515 -0.0335 0.9356
vn -0.2813 -0.4760 0.8332
vn 0.2813 -0.4760 0.8332
vn -0.9356 -0.0335 0.3515
vn -0.9356 -0.0335 -0.3515
vn -0.8332 -0.4760 -0.2813
vn -0.8332 -0.4760 0.2813
vn 0.9356 -0.0335 -0.3515
vn 0.9356 -0.0335 0.3515
vn 0.8332 -0.4760 0.2813
vn 0.8332 -0.4760 -0.2813
usemtl Material
s off
f 1/1/1 35/2/1 69/3/1 32/4/1
f 35/2/2 5/5/2 34/6/2 69/3/2
f 69/3/3 34/6/3 7/7/3 31/8/3
f 32/4/4 69/3/4 31/8/4 3/9/4
f 4/10/5 29/11/5 70/12/5 33/13/5
f 29/11/6 3/9/6 31/8/6 70/12/6
f 70/12/7 31/8/7 7/7/7 28/14/7
f 33/13/8 70/12/8 28/14/8 8/15/8
f 8/15/9 28/14/9 71/16/9 25/17/9
f 28/14/10 7/7/10 34/6/10 71/16/10
f 71/16/11 34/6/11 5/5/11 30/18/11
f 25/17/12 71/16/12 30/18/12 6/19/12
f 6/19/13 26/20/13 72/21/13 42/22/13
f 26/20/14 2/23/14 41/24/14 72/21/14
f 72/21/15 41/24/15 9/25/15 38/26/15
f 42/22/16 72/21/16 38/26/16 11/27/16
f 2/23/17 27/28/17 73/29/17 36/30/17
f 27/28/18 1/1/18 32/4/18 73/29/18
f 73/29/19 32/4/19 3/9/19 29/11/19
f 36/30/20 73/29/20 29/11/20 4/10/20
f 6/19/21 30/18/21 74/31/21 26/20/21
f 30/18/22 5/5/22 35/2/22 74/31/22
f 74/31/23 35/2/23 1/1/23 27/28/23
f 26/20/24 74/31/24 27/28/24 2/23/24
f 10/32/25 39/33/25 75/34/25 50/35/25
f 39/33/26 12/36/26 49/37/26 75/34/26
f 75/34/27 49/37/27 16/38/27 47/39/27
f 50/35/28 75/34/28 47/39/28 14/40/28
f 4/10/29 33/13/29 76/41/29 44/42/29
f 33/13/30 8/15/30 43/43/30 76/41/30
f 76/41/31 43/43/31 12/44/31 39/45/31
f 44/42/32 76/41/32 39/45/32 10/46/32
f 8/47/33 25/48/33 77/49/33 43/50/33
f 25/48/34 6/51/34 42/52/34 77/49/34
f 77/49/35 42/52/35 11/27/35 37/53/35
f 43/50/36 77/49/36 37/53/36 12/44/36
f 2/23/37 36/30/37 78/54/37 41/24/37
f 36/30/38 4/10/38 44/42/38 78/54/38
f 78/54/39 44/42/39 10/46/39 40/55/39
f 41/24/40 78/54/40 40/55/40 9/25/40
f 13/56/41 48/57/41 79/58/41 58/59/41
f 48/57/42 14/40/42 57/60/42 79/58/42
f 79/58/43 57/60/43 18/61/43 56/62/43
f 58/59/44 79/58/44 56/62/44 17/63/44
f 12/36/45 37/64/45 80/65/45 49/37/45
f 37/64/46 11/66/46 51/67/46 80/65/46
f 80/65/47 51/67/47 15/68/47 45/69/47
f 49/37/48 80/65/48 45/69/48 16/38/48
f 9/70/49 40/71/49 81/72/49 52/73/49
f 40/71/50 10/32/50 50/35/50 81/72/50
f 81/72/51 50/35/51 14/40/51 48/57/51
f 52/73/52 81/72/52 48/57/52 13/56/52
f 11/66/53 38/74/53 82/75/53 51/67/53
f 38/74/54 9/70/54 52/73/54 82/75/54
f 82/75/55 52/73/55 13/56/55 46/76/55
f 51/67/56 82/75/56 46/76/56 15/68/56
f 19/77/57 54/78/57 83/79/57 66/80/57
f 54/78/58 17/63/58 65/81/58 83/79/58
f 83/79/59 65/81/59 21/82/59 62/83/59
f 66/80/60 83/79/60 62/83/60 23/84/60
f 15/68/61 46/76/61 84/85/61 59/86/61
f 46/76/62 13/56/62 58/59/62 84/85/62
f 84/85/63 58/59/63 17/63/63 54/78/63
f 59/86/64 84/85/64 54/78/64 19/77/64
f 14/40/65 47/39/65 85/87/65 57/60/65
f 47/39/66 16/38/66 60/88/66 85/87/66
f 85/87/67 60/88/67 20/89/67 55/90/67
f 57/60/68 85/87/68 55/90/68 18/61/68
f 16/38/69 45/69/69 86/91/69 60/88/69
f 45/69/70 15/68/70 59/86/70 86/91/70
f 86/91/71 59/86/71 19/77/71 53/92/71
f 60/88/72 86/91/72 53/92/72 20/89/72
f 23/84/73 62/83/73 87/93/73 61/94/73
f 62/83/74 21/82/74 64/95/74 87/93/74
f 87/93/75 64/95/75 22/96/75 63/97/75
f 61/94/76 87/93/76 63/97/76 24/98/76
f 18/61/77 55/90/77 88/99/77 68/100/77
f 55/90/78 20/89/78 67/101/78 88/99/78
f 88/99/79 67/101/79 24/98/79 63/97/79
f 68/100/80 88/99/80 63/97/80 22/96/80
f 20/89/81 53/102/81 89/103/81 67/101/81
f 53/102/82 19/77/82 66/80/82 89/103/82
f 89/103/83 66/80/83 23/84/83 61/94/83
f 67/101/84 89/103/84 61/94/84 24/98/84
f 17/63/85 56/62/85 90/104/85 65/81/85
f 56/62/86 18/61/86 68/100/86 90/104/86
f 90/104/87 68/100/87 22/96/87 64/95/87
f 65/81/88 90/104/88 64/95/88 21/82/88
